<?xml version="1.0" standalone="no"?>
<!DOCTYPE svg PUBLIC "-//W3C//DTD SVG 20010904//EN"
 "http://www.w3.org/TR/2001/REC-SVG-20010904/DTD/svg10.dtd">
<svg version="1.0" xmlns="http://www.w3.org/2000/svg"
 width="556.000000pt" height="556.000000pt" viewBox="0 0 556.000000 556.000000"
 preserveAspectRatio="xMidYMid meet">
<metadata>
Created by potrace 1.14, written by Peter Selinger 2001-2017
</metadata>
<g transform="translate(0.000000,556.000000) scale(0.100000,-0.100000)"
fill="#000000" stroke="none">
<path d="M2918 5245 c-2 -1 -59 -5 -128 -8 -136 -6 -285 -38 -375 -81 -27 -13
-61 -27 -75 -31 -14 -4 -45 -18 -70 -31 -49 -26 -89 -31 -108 -12 -13 13 -32
1 -241 -151 -120 -86 -233 -150 -296 -168 -40 -11 -127 -138 -206 -298 -53
-107 -63 -122 -91 -130 -37 -11 -37 -13 -83 -225 -14 -69 -39 -170 -55 -225
-41 -145 -42 -160 -41 -380 1 -202 7 -271 41 -470 11 -60 20 -128 22 -150 l3
-40 -71 -6 c-84 -8 -121 -25 -163 -76 -51 -62 -73 -134 -79 -255 -7 -171 37
-387 110 -533 49 -96 143 -227 211 -292 51 -49 74 -63 122 -77 104 -29 97 -19
132 -167 36 -149 74 -250 129 -341 88 -144 254 -312 521 -527 170 -136 166
-159 -35 -182 -111 -12 -261 -42 -477 -94 -82 -20 -266 -63 -408 -95 -259 -59
-336 -85 -402 -136 -76 -58 -215 -54 2038 -54 l2072 0 -50 36 c-75 53 -161 87
-305 119 -41 9 -248 59 -460 112 -319 79 -405 97 -502 104 -136 9 -188 27
-188 62 0 27 31 58 155 153 268 205 454 403 535 567 22 45 56 140 75 210 51
190 51 191 168 222 43 12 68 27 100 59 101 101 217 274 257 384 53 147 80 319
75 474 -2 79 -7 106 -29 155 -47 101 -115 152 -206 153 -25 0 -51 4 -57 8 -12
8 -11 50 2 142 3 19 7 51 10 70 3 19 12 80 21 135 24 156 30 554 10 680 -28
168 -88 321 -212 536 -24 42 -44 85 -44 97 0 11 15 32 33 47 l32 26 -43 39
c-47 42 -416 291 -572 385 -187 114 -386 205 -520 240 -52 13 -272 29 -282 20z"/>
</g>
</svg>
